<svg xmlns="http://www.w3.org/2000/svg" xmlns:xlink="http://www.w3.org/1999/xlink" viewBox="0 0 1080 1080"><defs><circle id="a" cx="540.2" cy="540" r="537.8"/></defs><linearGradient id="b" gradientUnits="userSpaceOnUse" x1="178.8" y1="178.6" x2="903.4" y2="903.2"><stop offset="0" stop-color="#f89841"/><stop offset="1" stop-color="#f47721"/></linearGradient><use xlink:href="#a" overflow="visible" fill="url(#b)"/><clipPath id="c"><use xlink:href="#a" overflow="visible"/></clipPath><g clip-path="url(#c)"><path d="M887.7 181.6c-289.2-.9-416.2 237.7-468.4 429C354.9 366 202 176.8-76.3 176c-29.9-.1-61.1 2.5-95.1 6.5v9.5h16.3c332.7 1 473.8 457.7 473.1 685.8-.1 33.9 1.2 66.6 1 105.9-.5 157.5-33.1 171-160.8 189.6v8.2c57-2.6 169.8-6.3 233.6-6.1 67.9.2 184.6 3.3 241.7 7.5v-9.5c-164.3-15.5-170.9-56.2-170.5-183.8.1-33.9 1.6-69.2 1.7-103.2.8-272.9 123-694.8 444.8-693.8 12.2 0 24.4.1 38 1.5v-9.5a903.1 903.1 0 0 0-59.8-3z" fill-rule="evenodd" clip-rule="evenodd" fill="#fff"/></g></svg>
